<svg xmlns="http://www.w3.org/2000/svg" width="34" height="24" viewBox="0 0 34 24"><g><g><path fill="#1e528b" d="M33.08 0c.507 0 .92.418.92.932v22.136a.927.927 0 0 1-.92.932H.92a.927.927 0 0 1-.92-.932V.932C0 .418.413 0 .92 0zM1.841 22.146h30.316V1.864H1.842z"/></g><g><path fill="#1e528b" d="M6.296 15.736c.39.352 1.022.352 1.413 0l3.998-3.6a.838.838 0 0 0 .001-1.272h-.001l-3.997-3.6a1.08 1.08 0 0 0-1.414 0 .839.839 0 0 0 0 1.273l3.277 2.97-3.282 2.956a.838.838 0 0 0 .004 1.273z"/></g><g><path fill="#1e528b" d="M13.917 17h7.166c.506 0 .917-.448.917-1s-.41-1-.917-1h-7.166c-.506 0-.917.448-.917 1s.411 1 .917 1"/></g></g></svg>