<svg xmlns="http://www.w3.org/2000/svg" width="12" height="12" viewBox="0 0 12 12"><defs><clipPath id="k2j4a"><path d="M.355.44h11.588v11.557H.355z"/></clipPath></defs><g><g><g><g/><g clip-path="url(#k2j4a)"><path fill="#fff" d="M6.149 1.481c1.547 0 1.73.006 2.341.034.565.026.872.12 1.076.2.27.104.463.229.666.431.203.202.328.395.434.665.079.203.173.51.199 1.073.028.61.034.792.034 2.335s-.006 1.725-.034 2.335c-.026.563-.12.87-.2 1.073-.105.27-.23.462-.433.665a1.795 1.795 0 0 1-.666.432c-.204.079-.511.173-1.076.199-.61.027-.794.033-2.341.033-1.547 0-1.73-.006-2.342-.033-.564-.026-.871-.12-1.075-.2a1.795 1.795 0 0 1-.667-.431 1.789 1.789 0 0 1-.433-.665c-.08-.204-.174-.51-.2-1.073-.027-.61-.033-.792-.033-2.335s.006-1.726.034-2.335c.025-.564.12-.87.199-1.073.105-.27.23-.463.433-.665.203-.202.396-.327.667-.432.204-.08.51-.173 1.075-.199.611-.028.795-.034 2.342-.034m0-1.041c-1.574 0-1.771.007-2.39.035-.616.028-1.037.126-1.406.269a2.834 2.834 0 0 0-1.026.666c-.322.321-.52.644-.668 1.024-.143.367-.241.787-.27 1.402-.028.616-.034.813-.034 2.383S.36 7.985.389 8.6c.028.615.127 1.035.27 1.403.148.38.346.703.668 1.024.322.32.645.519 1.026.666.369.143.79.24 1.407.269.618.028.815.034 2.389.034 1.573 0 1.77-.006 2.389-.034.617-.028 1.038-.126 1.406-.269a2.84 2.84 0 0 0 1.026-.666c.322-.321.52-.644.668-1.024.144-.368.242-.788.27-1.403.028-.616.035-.813.035-2.382 0-1.57-.007-1.767-.035-2.383-.028-.615-.126-1.035-.27-1.402a2.831 2.831 0 0 0-.668-1.024A2.834 2.834 0 0 0 9.944.744C9.576.6 9.154.504 8.538.475 7.92.447 7.722.44 6.148.44"/></g></g><g><path fill="#fff" d="M6.37 3A3.004 3.004 0 0 1 9.38 6c0 1.657-1.347 3-3.008 3a3.004 3.004 0 0 1-3.008-3c0-1.657 1.346-3 3.008-3m.005 4.957a1.955 1.955 0 0 0 1.957-1.952 1.955 1.955 0 0 0-1.957-1.952 1.955 1.955 0 0 0-1.958 1.952c0 1.078.876 1.952 1.958 1.952"/></g><g><path fill="#fff" d="M9.379 3.5a.5.5 0 1 1-1.002-.001.5.5 0 0 1 1.002 0"/></g></g></g></svg>