<svg xmlns="http://www.w3.org/2000/svg" width="15" height="15" viewBox="0 0 15 15"><g><g><path fill="#fff" d="M2.513.78a1.66 1.66 0 0 1 1.649 1.658c-.002.953-.792 1.671-1.66 1.65C1.62 4.106.846 3.371.846 2.432c0-.91.75-1.653 1.666-1.652"/></g><g><path fill="#fff" d="M3.473 14.537h-1.94a.456.456 0 0 1-.455-.456V5.806c0-.252.204-.456.456-.456h1.939c.251 0 .455.204.455.456v8.275a.456.456 0 0 1-.455.456"/></g><g><path fill="#fff" d="M14.634 8.261a3.14 3.14 0 0 0-3.14-3.141h-.497a2.786 2.786 0 0 0-2.443 1.443.201.201 0 0 0-.026-.003V5.544a.19.19 0 0 0-.19-.19H5.92a.19.19 0 0 0-.19.19v8.808c0 .105.085.19.19.19H8.39a.19.19 0 0 0 .19-.19V9.265c0-.88.7-1.61 1.58-1.62a1.595 1.595 0 0 1 1.617 1.6v5.11c0 .104.085.189.19.189h2.477a.19.19 0 0 0 .189-.189V8.261z"/></g></g></svg>