<svg xmlns="http://www.w3.org/2000/svg" width="12" height="10" viewBox="0 0 12 10"><g><g><path fill="#fff" d="M.2 8.866A6.874 6.874 0 0 0 3.984 10c4.583 0 7.172-3.958 7.017-7.51.482-.355.9-.8 1.231-1.306-.443.2-.919.336-1.418.397.51-.312.901-.807 1.086-1.396a4.89 4.89 0 0 1-1.568.613A2.44 2.44 0 0 0 8.53 0C6.937 0 5.766 1.52 6.126 3.1 4.074 2.995 2.256 1.99 1.038.462c-.647 1.135-.336 2.62.764 3.37a2.42 2.42 0 0 1-1.119-.315c-.026 1.17.793 2.264 1.98 2.508a2.423 2.423 0 0 1-1.114.042C1.862 7.071 2.774 7.8 3.855 7.821A4.884 4.884 0 0 1 .2 8.866"/></g></g></svg>