<svg xmlns="http://www.w3.org/2000/svg" width="13" height="8" viewBox="0 0 13 8"><g><g clip-path="url(#clip-F939F19A-6540-A6FC-8C89-4A5950306439)"><path fill="#fff" d="M12.058 1.25c.251.89.251 2.75.251 2.75s0 1.86-.251 2.75a1.47 1.47 0 0 1-1.064 1.011C10.056 8 6.294 8 6.294 8S2.53 8 1.592 7.761a1.471 1.471 0 0 1-1.064-1.01C.277 5.859.277 4 .277 4s0-1.86.252-2.75A1.472 1.472 0 0 1 1.593.238C2.53 0 6.293 0 6.293 0s3.763 0 4.701.239a1.47 1.47 0 0 1 1.064 1.01zM8.208 4L5.062 2.31v3.377z"/></g></g></svg>