<svg xmlns="http://www.w3.org/2000/svg" width="175" height="35" viewBox="0 0 175 35"><g><g><g><path d="M174.327 13.719a7.512 7.512 0 0 0-1.764-.19c-.994 0-2.053.158-2.727.444V28.17h-3.495V11.91c1.667-.7 4.136-1.208 6.702-1.208.77 0 1.443.032 1.957.128zm-15.765-2.668h3.53v17.118h-3.53zm3.85-5.081c0 1.08-.93 1.968-2.085 1.968-1.155 0-2.085-.889-2.085-1.968 0-1.08.93-1.97 2.085-1.97 1.155 0 2.085.89 2.085 1.97zm-11.395 13.592c-3.527.192-7.056.478-7.056 3.526 0 1.812 1.412 2.922 4.073 2.922 1.123 0 2.438-.19 2.983-.444zm3.325 7.752c-1.25.666-3.78 1.205-6.216 1.205-4.97 0-7.469-2-7.469-5.366 0-4.765 5.13-5.623 10.353-5.908v-1.08c0-2.16-1.444-2.923-3.653-2.923-1.635 0-3.623.508-4.777 1.048l-.896-2.381c1.377-.604 3.717-1.208 6.025-1.208 4.133 0 6.633 1.588 6.633 5.814zm-19.236.855V16.197c0-2.478-1.765-3.908-4.139-3.908-1.86 0-3.337.636-4.267 1.716V28.17h-1.894V15.69c0-2.097-1.892-3.4-4.554-3.4-1.54 0-2.89.286-3.885.7v15.18h-1.892V11.91c1.605-.7 3.626-1.176 5.744-1.176 2.63 0 4.524.953 5.422 2.097 1.059-1.048 3.048-2.097 5.584-2.097 3.432 0 5.774 2.064 5.774 5.368V28.17zm-26.48-10.487c-.033-3.711-1.958-5.455-4.848-5.455-3.403 0-5.49 2.759-5.586 6.946zm1.819.133c0 .32 0 .636-.033 1.018l-12.124 1.78c.256 4.19 2.631 6.319 6.286 6.319 1.733 0 3.594-.445 4.682-1.081l.643 1.463c-1.156.666-3.207 1.174-5.389 1.174-4.939 0-8.05-3.08-8.05-8.893 0-5.273 2.79-8.862 7.313-8.862 4.009 0 6.672 2.573 6.672 7.082zM94.243 28.138c-.288.127-.736.19-1.345.19-2.568 0-4.395-1.396-4.395-4.286V12.48H85.81v-1.43h2.694V6.796l1.827-.699v4.955h3.913v1.43H90.33v11.498c0 1.905 1.316 2.7 2.855 2.7.386 0 .803-.064 1.058-.16zm-11.2-4.35c0 2.827-2.338 4.7-6.15 4.7-1.73 0-3.718-.475-4.936-1.174l.738-1.463c.961.572 2.755 1.08 4.165 1.08 2.531 0 4.23-1.237 4.23-3.175 0-2.065-1.666-2.827-3.909-3.652-2.564-.954-4.774-2.002-4.774-4.956 0-2.477 1.987-4.415 5.478-4.415 1.828 0 3.462.509 4.552 1.176l-.738 1.397c-.802-.54-2.275-1.049-3.686-1.049-2.338 0-3.684 1.303-3.684 2.891 0 2.065 1.57 2.73 3.684 3.525 2.692 1.018 5.03 2.002 5.03 5.115zM60.666 35H58.71l2.598-6.83-6.51-17.12h2.051l4.747 13.244c.385 1.05.61 2.288.61 2.288h.063s.257-1.238.643-2.288l4.745-13.243h2.053zm-8.57-11.212c0 2.827-2.342 4.7-6.157 4.7-1.733 0-3.72-.475-4.939-1.174l.737-1.463c.962.572 2.758 1.08 4.17 1.08 2.534 0 4.231-1.237 4.231-3.175 0-2.065-1.665-2.827-3.912-3.652-2.564-.954-4.779-2.002-4.779-4.956 0-2.477 1.99-4.415 5.486-4.415 1.828 0 3.464.509 4.554 1.176l-.737 1.397c-.803-.54-2.277-1.049-3.689-1.049-2.342 0-3.688 1.303-3.688 2.891 0 2.065 1.571 2.73 3.688 3.525 2.693 1.018 5.035 2.002 5.035 5.115z"/></g><g><path fill="#004985" d="M17.394 25.708a1.51 1.51 0 0 1-2.102-.313 1.513 1.513 0 0 1 .312-2.103 1.511 1.511 0 0 1 2.104.316c.49.66.348 1.61-.314 2.1"/></g><g><path fill="#004985" d="M20.597 24.806c-.44.327-1.078.23-1.404-.21a1.011 1.011 0 0 1 .21-1.402 1.011 1.011 0 0 1 1.404.21c.325.44.229 1.076-.21 1.402"/></g><g><path fill="#004985" d="M23.601 22.812c-.43.32-1.095.221-1.414-.212-.318-.428-.218-1.093.21-1.413.432-.319 1.097-.219 1.415.212.32.43.22 1.095-.21 1.413"/></g><g><path fill="#004985" d="M15.15 19.59c-.91.673-2.053.502-2.727-.405-.672-.911-.54-2.107.37-2.78a1.984 1.984 0 0 1 2.815.421c.674.91.451 2.093-.458 2.765"/></g><g><path fill="#004985" d="M17.151 16.59c-.91.673-2.053.503-2.728-.408-.672-.909-.539-2.104.37-2.777a1.987 1.987 0 0 1 2.816.42c.673.91.45 2.09-.458 2.766"/></g><g><path fill="#004985" d="M14.363 23.693c-.682.505-1.54.377-2.045-.306-.506-.684-.405-1.579.278-2.084a1.49 1.49 0 0 1 2.11.317c.505.682.34 1.567-.343 2.073"/></g><g><path fill="#004985" d="M22.8 19.906a.52.52 0 0 1-.707-.106.521.521 0 0 1 .106-.706.521.521 0 0 1 .707.105c.16.215.11.547-.105.707"/></g><g><path fill="#004985" d="M22.801 16.906a.521.521 0 0 1-.708-.105.523.523 0 0 1 .106-.708.523.523 0 0 1 .707.106c.16.216.11.549-.105.707"/></g><g><path fill="#004985" d="M19.8 14.906a.523.523 0 0 1-.707-.105.523.523 0 0 1 .106-.708.521.521 0 0 1 .707.107c.16.214.11.547-.105.706"/></g><g><path fill="#004985" d="M19.947 30.915c-.809.27-1.589-.118-1.86-.93-.27-.808.103-1.635.913-1.902a1.496 1.496 0 0 1 1.92.957c.27.809-.164 1.604-.973 1.875"/></g><g><path fill="#004985" d="M27.658 20.973a.493.493 0 0 1-.63-.315.493.493 0 0 1 .314-.631.493.493 0 0 1 .631.314.493.493 0 0 1-.315.632"/></g><g><path fill="#004985" d="M23.974 28.919a1.473 1.473 0 0 1-1.892-.946 1.475 1.475 0 0 1 .943-1.892 1.478 1.478 0 0 1 1.894.945 1.477 1.477 0 0 1-.945 1.893"/></g><g><path fill="#004985" d="M26.317 24.947a.994.994 0 0 1-1.264-.63.994.994 0 0 1 .63-1.265.996.996 0 0 1 1.264.63.995.995 0 0 1-.63 1.265"/></g><g><path fill="#004985" d="M14.596 29.887c-1.078.36-2.118-.16-2.48-1.238-.361-1.077.138-2.178 1.217-2.54 1.079-.36 2.2.199 2.56 1.278.361 1.079-.218 2.137-1.297 2.5"/></g><g><path fill="#004985" d="M10.596 26.886c-1.079.361-2.119-.158-2.48-1.235-.36-1.08.138-2.18 1.217-2.542a1.999 1.999 0 0 1 2.56 1.276c.36 1.08-.219 2.14-1.297 2.501"/></g><g><path fill="#004985" d="M8.596 21.885c-1.079.363-2.12-.157-2.48-1.235-.36-1.08.138-2.178 1.216-2.54 1.08-.361 2.2.197 2.561 1.277.36 1.077-.218 2.138-1.297 2.498"/></g><g><path fill="#004985" d="M9.597 15.886c-1.08.36-2.12-.157-2.481-1.236-.36-1.08.138-2.18 1.217-2.54 1.079-.361 2.2.197 2.56 1.276.361 1.08-.219 2.14-1.296 2.5"/></g><g><path fill="#004985" d="M18.596 11.858c-1.078.45-2.119-.198-2.48-1.546-.36-1.349.137-2.724 1.217-3.175 1.079-.452 2.199.246 2.56 1.595.36 1.349-.218 2.674-1.297 3.126"/></g><g><path fill="#004985" d="M12.596 11.886c-1.08.36-2.118-.158-2.48-1.236-.361-1.08.138-2.18 1.216-2.54 1.08-.361 2.199.197 2.56 1.276.362 1.08-.218 2.14-1.296 2.5"/></g><g><path fill="#004985" d="M27.658 17.973a.492.492 0 0 1-.63-.315.492.492 0 0 1 .314-.63.491.491 0 0 1 .63.313.491.491 0 0 1-.314.632"/></g><g><path fill="#004985" d="M25.659 13.973a.493.493 0 0 1-.632-.315.493.493 0 0 1 .315-.631.493.493 0 0 1 .63.315.492.492 0 0 1-.313.63"/></g><g><path fill="#004985" d="M23.658 11.973a.491.491 0 0 1-.63-.315.493.493 0 0 1 .314-.631.493.493 0 0 1 .63.315.492.492 0 0 1-.314.63"/></g><g><path fill="#004985" d="M22.83 6.754a2.964 2.964 0 0 1-1.585-3.923 2.965 2.965 0 0 1 3.925-1.586 2.964 2.964 0 0 1 1.584 3.924 2.963 2.963 0 0 1-3.923 1.585"/></g><g><path fill="#004985" d="M2.517 14.786c-1.297-.55-1.857-1.934-1.306-3.23.55-1.297 1.955-1.903 3.252-1.353a2.49 2.49 0 0 1 1.33 3.297c-.549 1.297-1.98 1.836-3.276 1.286"/></g><g><path fill="#004985" d="M1.22 20.837A1.98 1.98 0 0 1 .164 18.22a1.981 1.981 0 0 1 2.617-1.058 1.983 1.983 0 0 1 1.058 2.618 1.98 1.98 0 0 1-2.617 1.057"/></g><g><path fill="#004985" d="M2.218 25.842a2 2 0 1 1 1.564-3.681 2 2 0 0 1-1.564 3.68"/></g><g><path fill="#004985" d="M5.209 30.824c-1.045-.444-1.48-1.519-1.036-2.565.442-1.046 1.542-1.54 2.59-1.096a1.995 1.995 0 0 1 1.07 2.65c-.444 1.043-1.578 1.453-2.624 1.01"/></g><g><path fill="#004985" d="M9.913 33.882a1.514 1.514 0 0 1-.796-1.969 1.514 1.514 0 0 1 1.97-.795 1.514 1.514 0 0 1 .796 1.968 1.513 1.513 0 0 1-1.97.796"/></g><g><path fill="#004985" d="M21.917 33.877a1.48 1.48 0 0 1-.794-1.962 1.48 1.48 0 0 1 1.961-.792c.774.33 1.12 1.188.793 1.96a1.477 1.477 0 0 1-1.96.794"/></g><g><path fill="#004985" d="M15.916 34.877a1.477 1.477 0 0 1-.792-1.962 1.476 1.476 0 0 1 1.96-.791 1.477 1.477 0 0 1 .792 1.96 1.478 1.478 0 0 1-1.96.793"/></g><g><path fill="#004985" d="M27.61 29.916a.984.984 0 0 1-.528-1.305.986.986 0 0 1 1.307-.53c.517.22.747.792.529 1.31a.983.983 0 0 1-1.307.525"/></g><g><path fill="#004985" d="M16.814 5.734c-1.569-.665-2.22-2.279-1.555-3.847.666-1.57 2.317-2.308 3.885-1.642 1.57.666 2.27 2.403 1.605 3.972-.666 1.568-2.366 2.183-3.935 1.517"/></g><g><path fill="#004985" d="M9.814 6.734c-1.57-.666-2.22-2.279-1.554-3.848.665-1.567 2.316-2.307 3.885-1.641 1.568.665 2.27 2.402 1.604 3.971-.665 1.57-2.365 2.184-3.935 1.518"/></g><g><path fill="#004985" d="M5.511 9.779c-1.307-.555-1.85-1.9-1.295-3.207.555-1.307 1.93-1.923 3.238-1.368a2.492 2.492 0 0 1 1.337 3.31c-.555 1.306-1.973 1.82-3.28 1.265"/></g><g><path fill="#004985" d="M31.306 24.959a.493.493 0 0 1-.265-.654.491.491 0 0 1 .654-.263c.258.11.373.395.264.652a.492.492 0 0 1-.653.265"/></g><g><path fill="#004985" d="M32.306 19.958a.492.492 0 0 1-.265-.652.492.492 0 0 1 .653-.265c.259.11.374.395.265.654a.491.491 0 0 1-.653.263"/></g><g><path fill="#004985" d="M29.305 8.959a.491.491 0 0 1-.264-.654.491.491 0 0 1 .654-.264c.258.11.373.396.264.654a.492.492 0 0 1-.654.264"/></g><g><path fill="#004985" d="M31.041 14.306a.492.492 0 0 1 .654-.265c.258.11.373.396.264.653a.492.492 0 0 1-.654.265.491.491 0 0 1-.264-.653z"/></g></g></g></svg>